<?xml version="1.0" encoding="UTF-8" standalone="no"?>
<svg width="300px" height="90px" viewBox="0 0 300 90" version="1.1" xmlns="http://www.w3.org/2000/svg" xmlns:xlink="http://www.w3.org/1999/xlink">
    <!-- Generator: Sketch 42 (36781) - http://www.bohemiancoding.com/sketch -->
    <title>Artboard</title>
    <desc>Created with Sketch.</desc>
    <defs></defs>
    <g id="Page-1" stroke="none" stroke-width="1" fill="none" fill-rule="evenodd">
        <g id="Artboard" fill-rule="nonzero" fill="#FFFFFF">
            <g id="forge-logo" transform="translate(0.000000, 25.000000)">
                <g id="Page-1">
                    <g>
                        <g id="forge-logo">
                            <path d="M77.942464,0.3171867 C82.065892,0.3171867 83.969012,1.0572891 85.13203,2.5374938 C86.823693,4.7578009 87.775253,9.1984152 85.026301,20.0884929 C82.27735,30.9785706 79.211211,35.3134559 76.356531,37.6394919 C74.45341,39.1196966 72.127374,39.859799 68.003947,39.859799 L54.7878331,39.859799 C50.6644056,39.859799 48.6555564,39.1196966 47.5982673,37.6394919 C45.9066047,35.4191848 44.9550445,30.9785706 47.8097251,20.0884929 C50.5586767,9.1984152 53.730544,4.8635299 56.5852246,2.5374938 C58.488345,1.0572891 60.814381,0.3171867 64.937808,0.3171867 L77.942464,0.3171867 Z M58.6998028,30.2384682 C58.9112606,30.5556549 59.439905,30.6613838 61.131568,30.6613838 L66.206555,30.6613838 C67.898218,30.6613838 68.532591,30.5556549 68.955507,30.2384682 C69.484152,29.8155526 70.435712,28.7582635 72.55029,20.0884929 C74.770597,11.4187223 74.347681,10.3614332 74.030495,9.9385175 C73.819037,9.6213308 73.290392,9.5156019 71.59873,9.5156019 L66.629471,9.5156019 C64.937808,9.5156019 64.303435,9.6213308 63.880519,9.9385175 C63.351875,10.3614332 62.400315,11.4187223 60.285736,20.0884929 C57.9597004,28.8639924 58.3826161,29.8155526 58.6998028,30.2384682 Z M109.978324,27.0666009 C109.555408,26.5379564 109.132493,26.3264985 106.594999,26.3264985 L101.62574,26.3264985 C101.097096,26.3264985 100.568451,26.7494142 100.462722,27.2780587 L97.608042,38.9082388 C97.502313,39.4368834 96.973668,39.859799 96.445024,39.859799 L86.189319,39.859799 C85.660675,39.859799 85.343488,39.4368834 85.449217,38.9082388 L94.85909,1.2687469 C94.964819,0.7401024 95.493463,0.3171867 96.022108,0.3171867 L120.128299,0.3171867 C124.040269,0.3171867 126.154847,0.8458313 127.317865,2.326036 C128.586612,4.1234275 129.009528,6.0265479 127.635052,11.5244512 C125.837661,18.9254749 123.088709,21.0400531 118.330908,21.9916132 L118.330908,22.0973422 C122.03142,23.0489023 124.040269,24.3176493 122.771522,30.0270104 C122.03142,33.3046066 121.502775,36.5822028 121.185588,38.8025099 C121.07986,39.3311545 120.551215,39.859799 120.02257,39.859799 L109.555408,39.859799 C109.132493,39.859799 108.709577,39.5426123 108.815306,39.0139677 C109.132493,36.5822028 109.555408,34.1504379 110.189782,31.0842995 C110.612698,28.2296189 110.40124,27.7009744 109.978324,27.0666009 L109.978324,27.0666009 Z M109.238222,17.7624568 C111.458529,17.7624568 112.092902,17.6567279 112.515818,17.3395412 C113.25592,16.8108967 113.784565,15.8593365 114.313209,13.5333005 C114.841854,11.2072644 114.736125,10.3614332 114.313209,9.8327886 C113.996023,9.5156019 113.467378,9.409873 111.247071,9.409873 L105.749168,9.409873 C105.220523,9.409873 104.691879,9.8327886 104.58615,10.3614332 L103.000216,16.9166256 C102.894487,17.4452701 103.211674,17.8681858 103.740318,17.8681858 L109.238222,17.8681858 L109.238222,17.7624568 Z M160.939659,0 C165.168815,0 167.389122,0.5286445 168.657869,2.0088493 C170.138074,3.8062408 170.666718,6.5551924 169.5037,12.6874692 C169.397971,13.2161137 168.869327,13.6390294 168.340682,13.6390294 L158.507894,13.6390294 C157.979249,13.6390294 157.662062,13.2161137 157.767791,12.7931981 C158.190707,10.3614332 157.662062,10.0442464 157.344876,9.6213308 C157.133418,9.3041441 156.710502,9.1984152 154.913111,9.1984152 L149.838123,9.1984152 C148.040732,9.1984152 147.512087,9.3041441 147.089171,9.6213308 C146.454798,10.1499753 145.29178,11.9473668 143.38866,19.982764 C141.485539,28.0181611 141.802726,29.9212815 142.119913,30.449926 C142.33137,30.7671128 142.860015,30.8728417 144.657406,30.8728417 L150.049581,30.8728417 C151.635515,30.8728417 152.269888,30.7671128 152.692804,30.449926 C153.221448,30.0270104 154.278737,28.9697213 154.913111,26.1150407 L155.01884,25.797854 L147.406358,25.797854 C146.877714,25.797854 146.560527,25.3749384 146.666256,24.8462938 L148.14646,18.5025592 C148.252189,17.9739147 148.780834,17.550999 149.309479,17.550999 L167.60058,17.550999 C168.129224,17.550999 168.446411,17.9739147 168.340682,18.5025592 L167.389122,22.4145289 C165.168815,32.0358597 162.525592,35.4191848 159.776641,37.6394919 C157.767791,39.3311545 154.913111,39.9655279 151.212599,39.9655279 L137.996485,39.9655279 C133.873058,39.9655279 131.864208,39.2254255 130.70119,37.6394919 C128.903799,35.3134559 127.952239,30.9785706 130.595461,19.982764 C133.238684,8.9869573 136.304823,4.5463431 139.159503,2.326036 C141.062624,0.7401024 143.38866,0 147.512087,0 L160.939659,0 L160.939659,0 Z M202.173933,39.9655279 L170.560989,39.9655279 C170.032345,39.9655279 169.715158,39.5426123 169.820887,39.0139677 L178.702115,0.9515602 C178.807844,0.4229156 179.336489,0 179.865133,0 L216.658794,0 C217.293168,0 217.610354,0.6343735 217.187439,1.2687469 C215.601505,3.8062408 209.469228,9.1984152 202.596849,9.1984152 L189.803651,9.1984152 C189.275006,9.1984152 188.746362,9.6213308 188.640633,10.1499753 L187.689073,14.3791317 C187.583344,14.9077763 187.900531,15.3306919 188.429175,15.3306919 L205.662987,15.3306919 C206.191632,15.3306919 206.508819,15.7536076 206.40309,16.2822521 L204.922885,22.9431734 C204.817156,23.471818 204.288512,23.8947336 203.759867,23.8947336 L186.526055,23.8947336 C185.99741,23.8947336 185.468766,24.3176493 185.363037,24.8462938 L184.200019,29.7098237 C184.09429,30.2384682 184.411477,30.6613838 184.940121,30.6613838 L204.288512,30.6613838 C204.817156,30.6613838 205.134343,31.0842995 205.028614,31.612944 L203.336951,38.9082388 C203.231223,39.5426123 202.702578,39.9655279 202.173933,39.9655279 L202.173933,39.9655279 Z M50.24149,0.3171867 L6.892637,0.3171867 C6.3639924,0.3171867 5.8353479,0.7401024 5.729619,1.2687469 L4.6723299,5.0749877 C4.566601,5.4979033 4.7780588,5.81509 5.0952455,6.0265479 C6.7869081,6.5551924 15.8795943,6.7666502 14.5051185,11.8416379 L14.1879318,13.2161137 L10.4874199,27.0666009 L10.1702332,28.4410767 C8.7957574,33.5160644 3.9322275,33.7275222 1.9233782,34.2561668 C1.5004626,34.3618957 1.1832758,34.7848113 1.0775469,35.207727 L0.0202578,39.0139677 C-0.0854711,39.5426123 0.2317157,39.9655279 0.7603602,39.9655279 L18.4170881,39.9655279 C18.9457327,39.9655279 19.4743772,39.5426123 19.5801062,39.0139677 L22.7519735,26.7494142 C22.8577024,26.2207696 23.3863469,25.797854 23.9149915,25.797854 L35.2279848,25.797854 C35.7566294,25.797854 36.2852739,25.3749384 36.3910028,24.8462938 L38.0826654,18.2911014 C38.1883943,17.7624568 37.8712076,17.3395412 37.342563,17.3395412 L26.0295697,17.3395412 C25.5009251,17.3395412 25.1837384,16.9166256 25.2894673,16.387981 L26.8754009,10.4671621 C26.9811298,9.9385175 27.5097744,9.5156019 28.0384189,9.5156019 L45.0607734,9.5156019 C45.589418,9.5156019 46.1180625,9.0926862 46.2237914,8.5640417 L50.7701346,1.3744758 C50.9815924,0.7401024 50.7701346,0.3171867 50.24149,0.3171867 Z" id="Shape"></path>
                        </g>
                    </g>
                </g>
            </g>
        </g>
    </g>
</svg>